<svg width="132" height="59" viewBox="0 0 132 59" fill="none" xmlns="http://www.w3.org/2000/svg">
<path d="M15.1276 32.7456L11.2639 33.5348L5.90839 28.1743L7.17395 34.3702L3.31023 35.1594L0.793335 22.8373L4.65705 22.0481L10.0339 27.5129L8.74702 21.2126L12.6107 20.4234L15.1276 32.7456Z" fill="#906F2F"/>
<path d="M21.5624 31.5581C20.5762 31.7596 19.6471 31.7378 18.7752 31.4929C17.9032 31.2479 17.164 30.7946 16.5574 30.1329C15.9601 29.4571 15.5572 28.6087 15.3486 27.5877C15.14 26.5667 15.1792 25.634 15.4661 24.7898C15.7621 23.9316 16.2632 23.2188 16.9692 22.6516C17.6753 22.0843 18.5214 21.7 19.5077 21.4985C20.4939 21.2971 21.423 21.3188 22.2949 21.5638C23.1668 21.8087 23.9015 22.269 24.4988 22.9448C25.1053 23.6065 25.5129 24.4479 25.7215 25.469C25.93 26.49 25.8863 27.4296 25.5902 28.2878C25.3033 29.1321 24.8069 29.8378 24.1008 30.4051C23.3948 30.9723 22.5486 31.3567 21.5624 31.5581ZM20.8799 28.2165C21.2395 28.1431 21.5128 27.9422 21.6996 27.614C21.884 27.2741 21.9193 26.8258 21.8055 26.2688C21.6918 25.7119 21.4846 25.3191 21.1841 25.0904C20.8812 24.8501 20.5499 24.7667 20.1902 24.8401C19.8305 24.9136 19.5585 25.1203 19.3741 25.4601C19.1873 25.7883 19.1508 26.2309 19.2645 26.7878C19.3783 27.3448 19.5808 27.7446 19.8721 27.9872C20.1727 28.2159 20.5086 28.2924 20.8799 28.2165Z" fill="#906F2F"/>
<path d="M36.9244 28.4203C35.7641 28.6573 34.641 28.6027 33.555 28.2564C32.4806 27.9078 31.5607 27.31 30.7955 26.4631C30.0302 25.6162 29.5244 24.5894 29.2779 23.3828C29.0314 22.1761 29.0941 21.0331 29.4659 19.954C29.8378 18.8748 30.4507 17.97 31.3047 17.2396C32.1679 16.4952 33.1797 16.0045 34.34 15.7675C35.5002 15.5305 36.6176 15.5863 37.692 15.9349C38.764 16.272 39.6769 16.8651 40.4305 17.7144C41.1958 18.5613 41.7016 19.5881 41.9481 20.7948C42.1946 22.0014 42.1319 23.1444 41.7601 24.2235C41.3999 25.3003 40.7881 26.2109 39.9249 26.9553C39.0732 27.6973 38.0731 28.1857 36.9244 28.4203ZM36.1885 24.8177C36.9543 24.6612 37.4963 24.2967 37.8144 23.7241C38.1302 23.1398 38.2028 22.43 38.0322 21.5946C37.8592 20.7476 37.514 20.1231 36.9968 19.7211C36.4772 19.3075 35.8345 19.1789 35.0687 19.3354C34.2913 19.4941 33.7448 19.8657 33.429 20.4499C33.1108 21.0225 33.0382 21.7323 33.2112 22.5793C33.3819 23.4147 33.727 24.0392 34.2466 24.4528C34.7638 24.8548 35.4111 24.9764 36.1885 24.8177Z" fill="#906F2F"/>
<path d="M46.7435 17.4583C46.8947 16.956 47.1705 16.5311 47.5709 16.1834C47.9805 15.8217 48.5044 15.5757 49.1425 15.4454C49.9083 15.2889 50.6402 15.351 51.338 15.6315C52.0336 15.9004 52.6336 16.3821 53.1381 17.0768C53.6518 17.7575 54.0141 18.6142 54.2251 19.6469C54.436 20.6795 54.4398 21.6154 54.2366 22.4547C54.0425 23.28 53.6795 23.9585 53.1475 24.4902C52.6131 25.0103 51.9631 25.3485 51.1973 25.5049C50.5591 25.6353 49.9819 25.6202 49.4657 25.4598C48.9587 25.2853 48.5371 24.9968 48.201 24.594L48.4748 25.9341L44.611 26.7233L41.9804 13.8443L45.8441 13.0551L46.7435 17.4583ZM50.3091 20.4467C50.2025 19.9246 49.9861 19.5457 49.66 19.3102C49.3339 19.0746 48.962 18.9995 48.5443 19.0848C48.1266 19.1701 47.8139 19.3851 47.6063 19.7297C47.3987 20.0742 47.3482 20.5076 47.4549 21.0297C47.5615 21.5518 47.7779 21.9307 48.104 22.1662C48.4301 22.4018 48.802 22.4769 49.2197 22.3916C49.6374 22.3063 49.9501 22.0913 50.1577 21.7468C50.3653 21.4022 50.4158 20.9688 50.3091 20.4467Z" fill="#906F2F"/>
<path d="M57.6735 10.6388L60.3041 23.5179L56.4404 24.3071L53.8098 11.428L57.6735 10.6388Z" fill="#906F2F"/>
<path d="M61.8335 12.1642C61.1605 12.3016 60.5843 12.232 60.1047 11.9553C59.6251 11.6785 59.3296 11.2675 59.2183 10.7222C59.1045 10.1652 59.2139 9.66544 59.5466 9.22281C59.8768 8.76857 60.3784 8.47273 61.0514 8.33527C61.7127 8.20018 62.2844 8.27681 62.7663 8.56515C63.2459 8.84188 63.5425 9.25872 63.6563 9.81565C63.7677 10.361 63.6571 10.855 63.3245 11.2976C62.9918 11.7402 62.4948 12.0291 61.8335 12.1642ZM63.9079 12.5563L65.9129 22.3722L62.0492 23.1614L60.0442 13.3455L63.9079 12.5563Z" fill="#906F2F"/>
<path d="M69.1611 11.3564C69.7992 11.226 70.3776 11.2469 70.8962 11.419C71.4125 11.5794 71.8387 11.861 72.1748 12.2638L71.901 10.9237L75.7473 10.138L77.7168 19.7799C77.904 20.6965 77.9064 21.5663 77.724 22.3892C77.5415 23.2121 77.1194 23.9268 76.4577 24.5334C75.8075 25.1376 74.8965 25.5593 73.7246 25.7987C72.1467 26.121 70.8177 26.0057 69.7378 25.4527C68.6719 24.909 67.946 24.0178 67.56 22.7791L71.3541 22.0042C71.5628 22.4934 72.0327 22.6633 72.7636 22.514C73.2161 22.4216 73.5463 22.2333 73.7542 21.9491C73.962 21.6649 74.0008 21.2037 73.8705 20.5655L73.6323 19.3995C73.481 19.9017 73.2006 20.3337 72.791 20.6954C72.3791 21.0454 71.854 21.2856 71.2158 21.416C70.4501 21.5724 69.7194 21.5162 69.0239 21.2473C68.326 20.9668 67.7202 20.4862 67.2064 19.8055C66.7019 19.1108 66.3442 18.2471 66.1333 17.2145C65.9224 16.1818 65.9139 15.2529 66.108 14.4276C66.3112 13.5884 66.6801 12.9087 67.2144 12.3886C67.7464 11.8569 68.3953 11.5128 69.1611 11.3564ZM72.9035 15.8316C72.7969 15.3095 72.5805 14.9307 72.2544 14.6951C71.9283 14.4595 71.5564 14.3844 71.1386 14.4697C70.721 14.5551 70.4083 14.77 70.2007 15.1146C69.9931 15.4592 69.9426 15.8925 70.0492 16.4146C70.1559 16.9368 70.3723 17.3156 70.6984 17.5512C71.0245 17.7867 71.3964 17.8618 71.8141 17.7765C72.2318 17.6912 72.5444 17.4763 72.7521 17.1317C72.9597 16.7871 73.0102 16.3537 72.9035 15.8316Z" fill="#906F2F"/>
<path d="M77.9627 14.7982C77.7517 13.7656 77.7433 12.8366 77.9373 12.0114C78.1406 11.1721 78.5094 10.4924 79.0438 9.97233C79.5758 9.44063 80.2247 9.09656 80.9905 8.94015C81.6286 8.8098 82.207 8.83066 82.7256 9.00272C83.2419 9.16318 83.668 9.44479 84.0041 9.84752L83.7304 8.50741L87.5767 7.72176L89.5817 17.5377L85.7354 18.3233L85.4616 16.9832C85.3104 17.4855 85.03 17.9175 84.6204 18.2791C84.2084 18.6292 83.6834 18.8694 83.0452 18.9997C82.2794 19.1562 81.5488 19.0999 80.8533 18.831C80.1554 18.5505 79.5495 18.0699 79.0358 17.3892C78.5313 16.6946 78.1736 15.8309 77.9627 14.7982ZM84.7329 13.4154C84.6262 12.8932 84.4099 12.5144 84.0837 12.2788C83.7576 12.0433 83.3857 11.9682 82.968 12.0535C82.5503 12.1388 82.2377 12.3538 82.0301 12.6983C81.8224 13.0429 81.7719 13.4763 81.8786 13.9984C81.9853 14.5205 82.2016 14.8993 82.5277 15.1349C82.8539 15.3705 83.2258 15.4456 83.6435 15.3603C84.0612 15.2749 84.3738 15.06 84.5814 14.7154C84.789 14.3708 84.8395 13.9375 84.7329 13.4154Z" fill="#906F2F"/>
<path d="M96.7536 12.6461L97.4255 15.9355L95.9636 16.2341C93.2717 16.784 91.6521 15.7188 91.1046 13.0385L90.5785 10.4627L89.3602 10.7116L88.7025 7.4918L89.9208 7.24296L89.4373 4.87599L93.3011 4.0868L93.7845 6.45376L95.3857 6.1267L96.0434 9.34647L94.4422 9.67352L94.9826 12.319C95.03 12.551 95.1165 12.7086 95.2423 12.7917C95.3796 12.8724 95.5759 12.8867 95.8312 12.8346L96.7536 12.6461Z" fill="#906F2F"/>
<path d="M98.6813 4.6377C98.0083 4.77515 97.4321 4.70551 96.9525 4.42878C96.4729 4.15204 96.1774 3.74101 96.0661 3.19568C95.9523 2.63875 96.0617 2.13896 96.3944 1.69633C96.7246 1.24209 97.2262 0.946245 97.8992 0.808787C98.5605 0.673699 99.1322 0.750325 99.6141 1.03866C100.094 1.3154 100.39 1.73224 100.504 2.28917C100.616 2.8345 100.505 3.32848 100.172 3.77111C99.8396 4.21375 99.3426 4.50261 98.6813 4.6377ZM100.756 5.02984L102.761 14.8458L98.897 15.635L96.892 5.81904L100.756 5.02984Z" fill="#906F2F"/>
<path d="M109.195 13.6584C108.209 13.8599 107.28 13.8381 106.408 13.5932C105.536 13.3483 104.796 12.8949 104.19 12.2332C103.593 11.5574 103.19 10.7091 102.981 9.68801C102.773 8.66697 102.812 7.73433 103.099 6.89009C103.395 6.03188 103.896 5.31915 104.602 4.7519C105.308 4.18464 106.154 3.80029 107.14 3.59885C108.126 3.3974 109.055 3.41914 109.927 3.66408C110.799 3.90902 111.534 4.36935 112.131 5.04508C112.738 5.70683 113.145 6.54822 113.354 7.56927C113.563 8.59031 113.519 9.52993 113.223 10.3881C112.936 11.2324 112.439 11.9381 111.733 12.5054C111.027 13.0726 110.181 13.457 109.195 13.6584ZM108.512 10.3168C108.872 10.2434 109.145 10.0425 109.332 9.71428C109.516 9.37444 109.552 8.92606 109.438 8.36913C109.324 7.8122 109.117 7.41938 108.817 7.19068C108.514 6.95038 108.182 6.86697 107.823 6.94044C107.463 7.01391 107.191 7.22056 107.007 7.5604C106.82 7.88863 106.783 8.33122 106.897 8.88815C107.011 9.44508 107.213 9.84488 107.505 10.0876C107.805 10.3162 108.141 10.3927 108.512 10.3168Z" fill="#906F2F"/>
<path d="M120.426 0.939553C121.551 0.709666 122.504 0.907824 123.285 1.53402C124.077 2.15786 124.605 3.11372 124.868 4.40163L126.03 10.0928L122.184 10.8784L121.121 5.67459C121.026 5.21048 120.824 4.87106 120.514 4.65634C120.214 4.42764 119.854 4.35595 119.437 4.44127C119.007 4.52896 118.699 4.73692 118.513 5.06515C118.323 5.38179 118.276 5.77216 118.371 6.23627L119.434 11.4401L115.57 12.2293L113.565 2.41337L117.429 1.62417L117.735 3.12093C117.942 2.5952 118.265 2.13635 118.705 1.74437C119.156 1.35002 119.73 1.08175 120.426 0.939553Z" fill="#906F2F"/>
<path d="M131.219 5.82395L130.482 11.3591L128.045 11.8568L127.807 6.52072L131.219 5.82395Z" fill="#906F2F"/>
<path d="M11.6485 54.1461L16.5913 53.1365L17.2205 56.2171L7.9963 58.1012L7.40262 55.1947L10.9782 47.8468L6.10507 48.8422L5.4794 45.7791L14.7036 43.8949L15.2973 46.8014L11.6485 54.1461Z" fill="#906F2F"/>
<path d="M27.4412 48.926C27.4958 49.1929 27.5305 49.4517 27.5455 49.7024L21.3322 50.9716C21.5632 51.8067 22.0036 52.1579 22.6533 52.0252C23.071 51.9399 23.3336 51.6868 23.441 51.266L27.531 50.4306C27.534 51.1552 27.3661 51.8422 27.0273 52.4916C26.6978 53.1269 26.224 53.677 25.6058 54.1417C24.9968 54.5924 24.2862 54.9007 23.474 55.0666C22.4994 55.2657 21.5877 55.2404 20.739 54.9907C19.9018 54.7387 19.1916 54.2794 18.6082 53.6129C18.0341 52.9325 17.6428 52.0817 17.4342 51.0607C17.2257 50.0396 17.2532 49.1094 17.5169 48.2699C17.7898 47.4164 18.2618 46.7096 18.9331 46.1494C19.6159 45.5869 20.4446 45.2061 21.4193 45.007C22.3939 44.808 23.2998 44.8345 24.1369 45.0865C24.9832 45.3246 25.6911 45.7723 26.2605 46.4295C26.8415 47.0844 27.2351 47.9166 27.4412 48.926ZM23.3369 48.8034C23.2705 48.4786 23.1164 48.2562 22.8743 48.1365C22.6299 48.0051 22.3511 47.9714 22.0378 48.0354C21.3532 48.1752 21.0205 48.5876 21.0396 49.2727L23.3369 48.8034Z" fill="#906F2F"/>
<path d="M31.9119 44.8763C32.1903 44.2272 32.5794 43.6763 33.0792 43.2237C33.5766 42.7595 34.1328 42.4646 34.7477 42.339L35.5903 46.4638L34.4938 46.6877C33.7628 46.837 33.2494 47.0749 32.9534 47.4012C32.6691 47.7252 32.5933 48.2121 32.726 48.8618L33.5472 52.8822L29.6835 53.6714L27.6785 43.8555L31.5422 43.0663L31.9119 44.8763Z" fill="#906F2F"/>
<path d="M42.4969 51.1811C41.5106 51.3825 40.5815 51.3608 39.7096 51.1158C38.8377 50.8709 38.0984 50.4175 37.4919 49.7558C36.8945 49.0801 36.4916 48.2317 36.283 47.2106C36.0745 46.1896 36.1136 45.257 36.4005 44.4127C36.6966 43.5545 37.1977 42.8418 37.9037 42.2745C38.6097 41.7073 39.4559 41.3229 40.4421 41.1215C41.4283 40.92 42.3574 40.9418 43.2294 41.1867C44.1013 41.4316 44.8359 41.892 45.4332 42.5677C46.0398 43.2295 46.4474 44.0709 46.6559 45.0919C46.8645 46.1129 46.8207 47.0526 46.5246 47.9108C46.2378 48.755 45.7413 49.4608 45.0353 50.028C44.3292 50.5953 43.4831 50.9796 42.4969 51.1811ZM41.8143 47.8395C42.174 47.766 42.4472 47.5651 42.634 47.2369C42.8184 46.8971 42.8537 46.4487 42.74 45.8918C42.6262 45.3348 42.4191 44.942 42.1185 44.7133C41.8156 44.473 41.4843 44.3896 41.1246 44.4631C40.765 44.5365 40.4929 44.7432 40.3085 45.083C40.1217 45.4113 40.0852 45.8538 40.199 46.4108C40.3127 46.9677 40.5153 47.3675 40.8066 47.6102C41.1071 47.8389 41.443 47.9153 41.8143 47.8395Z" fill="#906F2F"/>
<path d="M60.2535 38.9966C60.4123 39.774 60.377 40.5185 60.1477 41.2301C59.916 41.9302 59.4841 42.5381 58.8522 43.0539C58.2319 43.5674 57.4228 43.9261 56.425 44.1299L54.8934 44.4427L55.6933 48.3587L51.8295 49.1479L49.3126 36.8257L54.7079 35.7237C56.2163 35.4156 57.449 35.5627 58.406 36.1649C59.3746 36.7648 59.9904 37.7087 60.2535 38.9966ZM55.3677 41.1731C56.1683 41.0095 56.4916 40.5507 56.3376 39.7965C56.1835 39.0423 55.7062 38.747 54.9056 38.9105L53.8091 39.1345L54.2713 41.397L55.3677 41.1731Z" fill="#906F2F"/>
<path d="M65.3605 38.0441C65.6388 37.395 66.0279 36.8442 66.5277 36.3916C67.0252 35.9273 67.5814 35.6324 68.1963 35.5068L69.0388 39.6316L67.9424 39.8556C67.2114 40.0049 66.6979 40.2427 66.402 40.5691C66.1177 40.8931 66.0418 41.3799 66.1746 42.0297L66.9958 46.05L63.132 46.8392L61.127 37.0233L64.9908 36.2341L65.3605 38.0441Z" fill="#906F2F"/>
<path d="M79.7386 38.2438C79.7931 38.5107 79.8279 38.7695 79.8428 39.0203L73.6295 40.2894C73.8606 41.1245 74.3009 41.4757 74.9507 41.343C75.3684 41.2577 75.631 41.0046 75.7384 40.5838L79.8284 39.7484C79.8313 40.473 79.6635 41.16 79.3247 41.8094C78.9952 42.4448 78.5213 42.9948 77.9031 43.4595C77.2942 43.9102 76.5836 44.2186 75.7714 44.3845C74.7967 44.5835 73.8851 44.5582 73.0363 44.3085C72.1992 44.0565 71.489 43.5972 70.9056 42.9307C70.3315 42.2503 69.9402 41.3995 69.7316 40.3785C69.5231 39.3574 69.5506 38.4272 69.8142 37.5877C70.0871 36.7342 70.5592 36.0274 71.2304 35.4673C71.9133 34.9047 72.742 34.5239 73.7166 34.3249C74.6913 34.1258 75.5971 34.1523 76.4343 34.4043C77.2806 34.6424 77.9885 35.0901 78.5579 35.7473C79.1388 36.4022 79.5324 37.2344 79.7386 38.2438ZM75.6343 38.1213C75.5679 37.7964 75.4137 37.5741 75.1717 37.4543C74.9273 37.3229 74.6485 37.2892 74.3352 37.3532C73.6506 37.493 73.3179 37.9055 73.3369 38.5905L75.6343 38.1213Z" fill="#906F2F"/>
<path d="M86.3742 42.2187C85.4459 42.4083 84.5913 42.4258 83.8103 42.271C83.041 42.1139 82.3929 41.8112 81.8662 41.3628C81.3395 40.9144 80.9784 40.3596 80.7829 39.6985L84.49 38.9413C84.5956 39.2219 84.7613 39.4116 84.987 39.5106C85.2243 39.6072 85.4996 39.6235 85.8129 39.5595C86.0101 39.5192 86.1584 39.4466 86.2579 39.3417C86.3549 39.2251 86.3904 39.1031 86.3644 38.9754C86.3193 38.755 86.1655 38.6232 85.9029 38.5802C85.6403 38.5371 85.2071 38.5168 84.6032 38.5193C83.867 38.5246 83.2503 38.4935 82.753 38.4258C82.2673 38.3558 81.8101 38.1591 81.3815 37.8357C80.9644 37.51 80.6848 36.999 80.5426 36.3028C80.4193 35.6995 80.4646 35.1222 80.6783 34.5709C80.9013 34.0056 81.2976 33.5197 81.8673 33.1133C82.4346 32.6952 83.1649 32.395 84.0583 32.2125C85.3811 31.9423 86.4801 32.0563 87.3554 32.5543C88.2422 33.05 88.8678 33.8046 89.2319 34.818L85.8033 35.5184C85.6908 35.2634 85.5275 35.0852 85.3134 34.9839C85.0969 34.871 84.8321 34.8465 84.5188 34.9105C84.3215 34.9508 84.179 35.0222 84.0912 35.1247C84.001 35.2157 83.9713 35.3366 84.0021 35.4874C84.0424 35.6847 84.195 35.8106 84.46 35.8653C84.7226 35.9083 85.1314 35.9276 85.6865 35.923C86.4227 35.9176 87.0522 35.9522 87.5751 36.0267C88.098 36.1012 88.5831 36.3164 89.0305 36.6722C89.4755 37.0164 89.7738 37.5599 89.9255 38.3024C90.044 38.8826 89.9824 39.4391 89.7407 39.9719C89.499 40.5047 89.0864 40.9698 88.5027 41.367C87.9307 41.7618 87.2212 42.0457 86.3742 42.2187Z" fill="#906F2F"/>
<path d="M96.4529 40.1601C95.5247 40.3497 94.6701 40.3671 93.8891 40.2124C93.1197 40.0553 92.4717 39.7525 91.9449 39.3041C91.4182 38.8557 91.0571 38.3009 90.8617 37.6398L94.5687 36.8826C94.6744 37.1632 94.8401 37.353 95.0658 37.4519C95.3031 37.5485 95.5783 37.5648 95.8916 37.5008C96.0889 37.4605 96.2372 37.3879 96.3366 37.283C96.4337 37.1665 96.4692 37.0444 96.4431 36.9167C96.3981 36.6963 96.2443 36.5645 95.9817 36.5215C95.719 36.4784 95.2858 36.4581 94.682 36.4606C93.9458 36.466 93.329 36.4348 92.8317 36.3672C92.346 36.2971 91.8889 36.1004 91.4602 35.7771C91.0432 35.4513 90.7635 34.9403 90.6213 34.2442C90.4981 33.6408 90.5433 33.0635 90.7571 32.5122C90.98 31.9469 91.3764 31.4611 91.946 31.0546C92.5133 30.6366 93.2437 30.3363 94.1371 30.1538C95.4598 29.8836 96.5588 29.9976 97.4341 30.4957C98.321 30.9914 98.9465 31.7459 99.3107 32.7594L95.882 33.4597C95.7695 33.2047 95.6062 33.0265 95.3921 32.9252C95.1757 32.8123 94.9108 32.7878 94.5975 32.8518C94.4003 32.8921 94.2578 32.9635 94.1699 33.0661C94.0797 33.157 94.05 33.2779 94.0808 33.4287C94.1211 33.626 94.2738 33.7519 94.5387 33.8066C94.8014 33.8497 95.2102 33.8689 95.7653 33.8643C96.5015 33.859 97.131 33.8935 97.6539 33.968C98.1767 34.0425 98.6618 34.2577 99.1092 34.6135C99.5542 34.9578 99.8526 35.5012 100.004 36.2438C100.123 36.8239 100.061 37.3804 99.8195 37.9132C99.5778 38.4461 99.1651 38.9111 98.5815 39.3083C98.0094 39.7031 97.2999 39.9871 96.4529 40.1601Z" fill="#906F2F"/>
<path d="M110.524 26.9336L112.529 36.7496L108.665 37.5388L108.359 36.042C108.152 36.5677 107.823 37.0278 107.372 37.4221C106.932 37.8141 106.364 38.0812 105.668 38.2234C104.543 38.4533 103.584 38.2563 102.792 37.6325C102.011 37.0063 101.489 36.0492 101.226 34.7613L100.064 29.0701L103.91 28.2845L104.973 33.4883C105.068 33.9524 105.265 34.2989 105.566 34.5275C105.876 34.7423 106.239 34.807 106.657 34.7217C107.087 34.634 107.396 34.4318 107.585 34.1152C107.772 33.7869 107.818 33.3908 107.723 32.9267L106.66 27.7228L110.524 26.9336Z" fill="#906F2F"/>
<path d="M116.502 27.598C116.78 26.9489 117.17 26.398 117.669 25.9454C118.167 25.4812 118.723 25.1863 119.338 25.0607L120.18 29.1855L119.084 29.4095C118.353 29.5588 117.84 29.7966 117.544 30.1229C117.259 30.4469 117.183 30.9338 117.316 31.5836L118.137 35.6039L114.274 36.3931L112.269 26.5772L116.132 25.788L116.502 27.598Z" fill="#906F2F"/>
<path d="M130.88 27.7977C130.935 28.0646 130.969 28.3234 130.984 28.5741L124.771 29.8433C125.002 30.6784 125.443 31.0296 126.092 30.8969C126.51 30.8116 126.773 30.5585 126.88 30.1377L130.97 29.3023C130.973 30.0269 130.805 30.7139 130.466 31.3632C130.137 31.9986 129.663 32.5487 129.045 33.0134C128.436 33.4641 127.725 33.7724 126.913 33.9383C125.938 34.1374 125.027 34.1121 124.178 33.8624C123.341 33.6104 122.631 33.1511 122.047 32.4846C121.473 31.8042 121.082 30.9534 120.873 29.9324C120.665 28.9113 120.692 27.9811 120.956 27.1416C121.229 26.2881 121.701 25.5813 122.372 25.0211C123.055 24.4586 123.884 24.0778 124.858 23.8787C125.833 23.6797 126.739 23.7062 127.576 23.9582C128.422 24.1963 129.13 24.6439 129.699 25.3012C130.28 25.9561 130.674 26.7883 130.88 27.7977ZM126.776 27.6751C126.71 27.3503 126.555 27.1279 126.313 27.0082C126.069 26.8768 125.79 26.8431 125.477 26.9071C124.792 27.0469 124.459 27.4593 124.479 28.1444L126.776 27.6751Z" fill="#906F2F"/>
</svg>
