<svg width="162" height="84" viewBox="0 0 162 84" fill="none" xmlns="http://www.w3.org/2000/svg">
<path fill-rule="evenodd" clip-rule="evenodd" d="M19.6167 82.8102C16.6238 83.4215 15.1274 83.7272 13.8471 83.4794C12.14 83.1489 10.6341 82.1539 9.66069 80.7131C8.93063 79.6326 8.62497 78.1361 8.01364 75.1432L5.29562 61.8365L0.971209 40.6652C0.359937 37.6726 0.0543014 36.1762 0.302088 34.896C0.63247 33.1891 1.62736 31.6832 3.06793 30.7098C4.14836 29.9797 5.64464 29.6739 8.63721 29.0623L146.1 0.969222C149.093 0.357519 150.59 0.051667 151.87 0.29942C153.578 0.629758 155.084 1.6248 156.057 3.06561C156.787 4.14623 157.093 5.64283 157.704 8.63603L160.986 24.7023C161.562 27.5219 159.746 30.2753 156.927 30.8558V30.8558C154.108 31.4363 152.292 34.1898 152.868 37.0094L154.544 45.2132C155.155 48.2061 155.461 49.7025 155.213 50.9828C154.882 52.6899 153.887 54.1958 152.447 55.1692C151.366 55.8993 149.87 56.2049 146.877 56.8163L19.6167 82.8102Z" fill="#FEFF89"/>
</svg>
