<svg width="18" height="22" viewBox="0 0 18 22" fill="none" xmlns="http://www.w3.org/2000/svg">
<path d="M15.364 15.364L9 21.728L2.636 15.364C1.37734 14.1053 0.520187 12.5017 0.172928 10.7558C-0.17433 9.01001 0.00390685 7.20041 0.685099 5.55588C1.36629 3.91136 2.51984 2.50575 3.99988 1.51683C5.47992 0.527899 7.21998 6.10352e-05 9 6.10352e-05C10.78 6.10352e-05 12.5201 0.527899 14.0001 1.51683C15.4802 2.50575 16.6337 3.91136 17.3149 5.55588C17.9961 7.20041 18.1743 9.01001 17.8271 10.7558C17.4798 12.5017 16.6227 14.1053 15.364 15.364ZM9 11C9.53044 11 10.0391 10.7893 10.4142 10.4142C10.7893 10.0391 11 9.53042 11 8.99998C11 8.46955 10.7893 7.96084 10.4142 7.58577C10.0391 7.2107 9.53044 6.99998 9 6.99998C8.46957 6.99998 7.96086 7.2107 7.58579 7.58577C7.21072 7.96084 7 8.46955 7 8.99998C7 9.53042 7.21072 10.0391 7.58579 10.4142C7.96086 10.7893 8.46957 11 9 11Z" fill="#36162E"/>
</svg>
